<mxfile host="app.diagrams.net" agent="Mozilla/5.0 (Windows NT 10.0; Win64; x64) AppleWebKit/537.36 (KHTML, like Gecko) Chrome/139.0.0.0 Safari/537.36" version="28.1.2">
  <diagram name="Page-1" id="lF-eQGMDgIZ1vO3FHS5t">
    <mxGraphModel dx="2037" dy="1061" grid="1" gridSize="10" guides="1" tooltips="1" connect="1" arrows="1" fold="1" page="1" pageScale="1" pageWidth="827" pageHeight="583" math="0" shadow="0">
      <root>
        <mxCell id="0" />
        <mxCell id="1" parent="0" />
        <mxCell id="Q2Tu3mG2wQ8tOnIhI2Y6-3" value="Hub VNet&lt;div&gt;(10.0.0.0/16)&lt;/div&gt;" style="rounded=0;whiteSpace=wrap;html=1;dashed=1;align=right;verticalAlign=bottom;" vertex="1" parent="1">
          <mxGeometry x="300" y="203.75" width="170" height="110" as="geometry" />
        </mxCell>
        <mxCell id="Q2Tu3mG2wQ8tOnIhI2Y6-6" value="Spoke VNet&lt;div&gt;(10.1.0.0/16)&lt;/div&gt;" style="rounded=0;whiteSpace=wrap;html=1;dashed=1;container=1;verticalAlign=bottom;align=right;" vertex="1" parent="1">
          <mxGeometry x="585" y="182.5" width="460" height="152.5" as="geometry" />
        </mxCell>
        <mxCell id="Q2Tu3mG2wQ8tOnIhI2Y6-1" value="On-prem" style="rounded=0;dashed=1;verticalAlign=bottom;whiteSpace=wrap;html=1;align=right;" vertex="1" parent="1">
          <mxGeometry x="120" y="226.44" width="120" height="68.75" as="geometry" />
        </mxCell>
        <mxCell id="Q2Tu3mG2wQ8tOnIhI2Y6-2" value="VPN" style="html=1;strokeWidth=12;shadow=0;dashed=0;shape=mxgraph.ios7.misc.vpn;fillColor=#007AFF;strokeColor=none;buttonText=;strokeColor2=#222222;fontColor=#222222;fontSize=8;verticalLabelPosition=bottom;verticalAlign=top;align=center;sketch=0;perimeterSpacing=5;" vertex="1" parent="1">
          <mxGeometry x="140" y="230" width="40" height="40" as="geometry" />
        </mxCell>
        <mxCell id="Q2Tu3mG2wQ8tOnIhI2Y6-4" value="Firewall" style="image;aspect=fixed;html=1;points=[];align=center;fontSize=8;image=img/lib/azure2/networking/Firewalls.svg;" vertex="1" parent="1">
          <mxGeometry x="332.94" y="220" width="47.33" height="40" as="geometry" />
        </mxCell>
        <mxCell id="Q2Tu3mG2wQ8tOnIhI2Y6-5" value="Bastion" style="image;aspect=fixed;html=1;points=[];align=right;fontSize=8;image=img/lib/azure2/networking/Bastions.svg;verticalAlign=top;" vertex="1" parent="1">
          <mxGeometry x="402.94" y="220" width="34.12" height="40" as="geometry" />
        </mxCell>
        <mxCell id="Q2Tu3mG2wQ8tOnIhI2Y6-12" value="Subnet: AKS Nodes&#xa;(10.1.1.0/24)" style="swimlane;startSize=0;verticalAlign=bottom;align=right;fontSize=6;" vertex="1" parent="1">
          <mxGeometry x="600.081081081081" y="213.15" width="75.40540540540538" height="84.35" as="geometry" />
        </mxCell>
        <mxCell id="Q2Tu3mG2wQ8tOnIhI2Y6-13" value="AKS" style="image;aspect=fixed;html=1;points=[];align=center;fontSize=8;image=img/lib/azure2/compute/Kubernetes_Services.svg;" vertex="1" parent="Q2Tu3mG2wQ8tOnIhI2Y6-12">
          <mxGeometry x="17.423675675675675" y="22.799999999999997" width="40.36502037911624" height="35.618813482564526" as="geometry" />
        </mxCell>
        <mxCell id="Q2Tu3mG2wQ8tOnIhI2Y6-14" value="Subnet: AKS Pods&#xa;(10.1.2.0/24)" style="swimlane;startSize=0;verticalAlign=bottom;align=right;fontSize=6;" vertex="1" parent="1">
          <mxGeometry x="685.5405405405405" y="213.15" width="75.40540540540538" height="84.35" as="geometry" />
        </mxCell>
        <mxCell id="Q2Tu3mG2wQ8tOnIhI2Y6-15" value="AKS" style="image;aspect=fixed;html=1;points=[];align=center;fontSize=8;image=img/lib/azure2/compute/Kubernetes_Services.svg;" vertex="1" parent="Q2Tu3mG2wQ8tOnIhI2Y6-14">
          <mxGeometry x="17.423675675675675" y="22.799999999999997" width="40.36502037911624" height="35.618813482564526" as="geometry" />
        </mxCell>
        <mxCell id="Q2Tu3mG2wQ8tOnIhI2Y6-17" value="Subnet: DB Private Endpoint&#xa;(10.1.3.0/24)" style="swimlane;startSize=0;verticalAlign=bottom;align=right;fontSize=6;" vertex="1" parent="1">
          <mxGeometry x="776.027027027027" y="213.15" width="75.40540540540538" height="84.35" as="geometry" />
        </mxCell>
        <mxCell id="Q2Tu3mG2wQ8tOnIhI2Y6-19" value="SQL" style="verticalLabelPosition=bottom;html=1;verticalAlign=top;align=center;strokeColor=none;fillColor=#00BEF2;shape=mxgraph.azure.sql_database_sql_azure;fontSize=8;" vertex="1" parent="Q2Tu3mG2wQ8tOnIhI2Y6-17">
          <mxGeometry x="20.11" y="22.8" width="40.22" height="37.2" as="geometry" />
        </mxCell>
        <mxCell id="Q2Tu3mG2wQ8tOnIhI2Y6-20" value="Subnet: App Gateway&#xa;(10.1.4.0/24)" style="swimlane;startSize=0;verticalAlign=bottom;align=right;fontSize=6;" vertex="1" parent="1">
          <mxGeometry x="866.5135135135134" y="213.15" width="75.40540540540538" height="84.35" as="geometry" />
        </mxCell>
        <mxCell id="Q2Tu3mG2wQ8tOnIhI2Y6-22" value="Gateway" style="image;aspect=fixed;html=1;points=[];align=center;fontSize=8;image=img/lib/azure2/networking/Application_Gateways.svg;" vertex="1" parent="Q2Tu3mG2wQ8tOnIhI2Y6-20">
          <mxGeometry x="16.59" y="20" width="37.92" height="37.92" as="geometry" />
        </mxCell>
        <mxCell id="Q2Tu3mG2wQ8tOnIhI2Y6-24" value="Subnet: Private Endpoints&#xa;(10.1.5.0/24)" style="swimlane;startSize=0;verticalAlign=bottom;align=right;fontSize=6;" vertex="1" parent="1">
          <mxGeometry x="955.0035135135134" y="213.15" width="75.40540540540538" height="84.35" as="geometry" />
        </mxCell>
        <mxCell id="Q2Tu3mG2wQ8tOnIhI2Y6-28" value="Key Vault" style="image;aspect=fixed;html=1;points=[];align=center;fontSize=8;image=img/lib/azure2/security/Key_Vaults.svg;" vertex="1" parent="Q2Tu3mG2wQ8tOnIhI2Y6-24">
          <mxGeometry x="17.130000000000003" y="18.38" width="41.15" height="41.15" as="geometry" />
        </mxCell>
        <mxCell id="Q2Tu3mG2wQ8tOnIhI2Y6-29" value="" style="shape=curlyBracket;whiteSpace=wrap;html=1;rounded=1;flipH=1;labelPosition=right;verticalLabelPosition=middle;align=left;verticalAlign=middle;rotation=90;" vertex="1" parent="1">
          <mxGeometry x="375" y="260" width="20" height="169" as="geometry" />
        </mxCell>
        <mxCell id="Q2Tu3mG2wQ8tOnIhI2Y6-30" value="Monitor" style="image;aspect=fixed;html=1;points=[];align=center;fontSize=8;image=img/lib/azure2/management_governance/Monitor.svg;" vertex="1" parent="1">
          <mxGeometry x="367" y="370" width="40" height="40" as="geometry" />
        </mxCell>
        <mxCell id="Q2Tu3mG2wQ8tOnIhI2Y6-31" value="Entra ID" style="image;aspect=fixed;html=1;points=[];align=center;fontSize=8;image=img/lib/azure2/other/Entra_Identity.svg;" vertex="1" parent="1">
          <mxGeometry x="307" y="370" width="45" height="40" as="geometry" />
        </mxCell>
        <mxCell id="Q2Tu3mG2wQ8tOnIhI2Y6-32" value="Defender" style="image;aspect=fixed;html=1;points=[];align=center;fontSize=8;image=img/lib/azure2/security/Azure_Defender.svg;" vertex="1" parent="1">
          <mxGeometry x="427" y="371" width="32.12" height="39" as="geometry" />
        </mxCell>
        <mxCell id="Q2Tu3mG2wQ8tOnIhI2Y6-33" value="Policy" style="image;sketch=0;aspect=fixed;html=1;points=[];align=center;fontSize=8;image=img/lib/mscae/Policy.svg;" vertex="1" parent="1">
          <mxGeometry x="477" y="370" width="36" height="40" as="geometry" />
        </mxCell>
        <mxCell id="Q2Tu3mG2wQ8tOnIhI2Y6-34" value="DNS" style="image;aspect=fixed;html=1;points=[];align=center;fontSize=8;image=img/lib/azure2/networking/DNS_Zones.svg;" vertex="1" parent="1">
          <mxGeometry x="257" y="371" width="40" height="40" as="geometry" />
        </mxCell>
        <mxCell id="Q2Tu3mG2wQ8tOnIhI2Y6-35" value="" style="shape=doubleArrow;whiteSpace=wrap;html=1;" vertex="1" parent="1">
          <mxGeometry x="240" y="253.69" width="60" height="14.25" as="geometry" />
        </mxCell>
        <mxCell id="Q2Tu3mG2wQ8tOnIhI2Y6-37" value="VNet peering" style="shape=doubleArrow;whiteSpace=wrap;html=1;verticalAlign=top;fontSize=9;" vertex="1" parent="1">
          <mxGeometry x="470" y="251.63" width="115" height="18.37" as="geometry" />
        </mxCell>
        <mxCell id="Q2Tu3mG2wQ8tOnIhI2Y6-38" value="" style="image;aspect=fixed;html=1;points=[];align=center;fontSize=12;image=img/lib/azure2/networking/Virtual_Networks.svg;" vertex="1" parent="1">
          <mxGeometry x="514.93" y="236.63" width="25.15" height="15" as="geometry" />
        </mxCell>
        <mxCell id="Q2Tu3mG2wQ8tOnIhI2Y6-41" value="" style="image;aspect=fixed;html=1;points=[];align=center;fontSize=12;image=img/lib/azure2/networking/Virtual_Networks.svg;" vertex="1" parent="1">
          <mxGeometry x="1030.4099999999999" y="170" width="25.15" height="15" as="geometry" />
        </mxCell>
        <mxCell id="Q2Tu3mG2wQ8tOnIhI2Y6-39" value="" style="image;aspect=fixed;html=1;points=[];align=center;fontSize=12;image=img/lib/azure2/networking/Virtual_Networks.svg;" vertex="1" parent="1">
          <mxGeometry x="451.84999999999997" y="188.75" width="25.15" height="15" as="geometry" />
        </mxCell>
      </root>
    </mxGraphModel>
  </diagram>
</mxfile>
